#!OML:ASF I:\Actors\actors\Patient Classification 2\Patient 1\Session 1\actor1.ASF
:FULLY-SPECIFIED
:DEGREES
157
root -0.198328 18.4147 4.95788 1.75103 -2.43209 -1.11842
lowerback 19.8398 -0.0878135 0.399724
upperback 1.86065 0.435178 4.77866
thorax -9.14519 0.293488 4.89449
lowerneck -15.6228 -1.23409 -0.338577
upperneck 21.0037 -0.73159 -3.86123
head 9.17148 -0.79807 -1.35831
rclavicle -1.11319e-014 1.74931e-014
rhumerus -6.8812 13.5074 -41.0259
rradius 120.152
rwrist 0.754901
rhand -21.034 -27.3807
rfingers 7.12502
rthumb 5.34149 -57.2934
lclavicle -1.11319e-014 1.74931e-014
lhumerus 19.2084 -30.7155 61.9012
lradius 105.961
lwrist 28.4768
lhand -16.9626 -31.3029
lfingers 7.12502
lthumb 9.27139 -1.52672
rfemur -5.91417 -1.62573 12.5146
rtibia 17.493
rfoot -16.8582 -5.0691
rtoes -17.7905
lfemur -14.3137 2.00156 -13.6943
ltibia 34.7464
lfoot -22.5349 6.70924
ltoes -56.5065
158
root -0.182775 18.4037 4.96648 1.69581 -2.84235 -1.00654
lowerback 19.9112 -0.12621 0.330671
upperback 1.91771 0.38276 4.9284
thorax -9.11895 0.273108 5.11592
lowerneck -15.4719 -1.02722 -0.107061
upperneck 20.9335 -0.397317 -4.34081
head 9.12461 -0.674844 -1.51806
rclavicle 0 7.95139e-015
rhumerus -7.54933 13.59 -41.0036
rradius 121.395
rwrist 0.830247
rhand -20.9955 -27.5673
rfingers 7.12502
rthumb 5.37871 -57.479
lclavicle 0 7.95139e-015
lhumerus 18.6373 -30.4173 61.8466
lradius 106.528
lwrist 28.9053
lhand -16.5862 -31.4264
lfingers 7.12502
lthumb 9.63457 -1.66667
rfemur -6.10829 -1.48312 12.3162
rtibia 17.8503
rfoot -16.8613 -4.79341
rtoes -17.9755
lfemur -14.2525 2.36567 -13.8756
ltibia 34.9518
lfoot -22.7365 6.71167
ltoes -56.4591
159
root -0.16667 18.3917 4.97468 1.60328 -3.18834 -0.885493
lowerback 19.9855 -0.144417 0.319543
upperback 2.00077 0.365657 5.04882
thorax -9.06762 0.265881 5.26089
lowerneck -15.3378 -0.870551 0.0938661
upperneck 20.8438 -0.129397 -4.80326
head 9.075 -0.582311 -1.67501
rclavicle -1.63003e-014 -1.43125e-014
rhumerus -8.09751 13.4505 -40.9961
rradius 122.61
rwrist 0.924317
rhand -20.8725 -27.6845
rfingers 7.12502
rthumb 5.49748 -57.5932
lclavicle -1.63003e-014 -1.43125e-014
lhumerus 18.2015 -30.2274 61.7717
lradius 107.095
lwrist 29.134
lhand -16.4078 -31.5154
lfingers 7.12502
lthumb 9.80677 -1.76375
rfemur -6.24986 -1.37145 12.1115
rtibia 18.2138
rfoot -16.8737 -4.53938
rtoes -18.2694
lfemur -14.1549 2.6502 -14.0609
ltibia 35.1541
lfoot -22.9197 6.72377
ltoes -56.3908
160
root -0.150396 18.3803 4.98436 1.53178 -3.4892 -0.778708
lowerback 20.0264 -0.138401 0.360742
upperback 2.07869 0.390308 5.16096
thorax -9.00708 0.27629 5.35407
lowerneck -15.3453 -0.741283 0.339338
upperneck 20.8423 0.120888 -5.37901
head 9.08358 -0.509146 -1.88358
rclavicle -3.97569e-015 -2.8625e-014
rhumerus -8.54533 13.2016 -40.9807
rradius 123.723
rwrist 1.15796
rhand -20.7712 -27.6853
rfingers 7.12502
rthumb 5.59523 -57.5914
lclavicle -3.97569e-015 -2.8625e-014
lhumerus 17.8629 -30.1678 61.7264
lradius 107.647
lwrist 29.1483
lhand -16.5334 -31.5612
lfingers 7.12502
lthumb 9.6855 -1.80392
rfemur -6.38166 -1.32752 11.9228
rtibia 18.5444
rfoot -16.8691 -4.24768
rtoes -18.4365
lfemur -14.0901 2.84319 -14.2334
ltibia 35.3601
lfoot -23.1233 6.76555
ltoes -56.3417
161
root -0.134079 18.3698 4.99502 1.52205 -3.71129 -0.743024
lowerback 20.0215 -0.154541 0.492446
upperback 2.1231 0.406977 5.28549
thorax -8.95742 0.280378 5.41061
lowerneck -15.3811 -0.612221 0.585252
upperneck 20.8501 0.372058 -5.95615
head 9.10299 -0.436155 -2.09348
rclavicle -4.77083e-015 -2.38542e-014
rhumerus -8.89634 13.0562 -40.9972
rradius 124.732
rwrist 1.3801
rhand -20.9055 -27.5252
rfingers 7.12502
rthumb 5.46559 -57.4347
lclavicle -4.77083e-015 -2.38542e-014
lhumerus 17.5077 -30.1732 61.7515
lradius 108.201
lwrist 29.253
lhand -16.7062 -31.5875
lfingers 7.12502
lthumb 9.5188 -1.82248
rfemur -6.53083 -1.32345 11.8178
rtibia 18.8325
rfoot -16.9092 -4.00872
rtoes -18.6022
lfemur -14.1192 3.04714 -14.3242
ltibia 35.5728
lfoot -23.2964 6.71747
ltoes -56.2946
162
root -0.119401 18.3611 5.0064 1.53961 -3.77305 -0.79111
lowerback 20.0101 -0.203242 0.713435
upperback 2.1408 0.403671 5.43077
thorax -8.93171 0.272888 5.44477
lowerneck -15.3144 -0.509325 0.74711
upperneck 20.7478 0.574153 -6.41499
head 9.06518 -0.376413 -2.25156
rclavicle -1.27222e-014 -1.74931e-014
rhumerus -9.21903 12.9871 -41.0512
rradius 125.748
rwrist 1.4616
rhand -21.0917 -27.2514
rfingers 7.12502
rthumb 5.2858 -57.1655
lclavicle -1.27222e-014 -1.74931e-014
lhumerus 17.131 -30.2293 61.8836
lradius 108.756
lwrist 29.4061
lhand -16.6857 -31.624
lfingers 7.12502
lthumb 9.53862 -1.85991
rfemur -6.65043 -1.36638 11.8141
rtibia 19.095
rfoot -17.0297 -3.86775
rtoes -18.7652
lfemur -14.2052 3.20146 -14.3106
ltibia 35.7903
lfoot -23.4334 6.57156
ltoes -56.2346
163
root -0.109325 18.3536 5.01715 1.55416 -3.68647 -0.881585
lowerback 20.0445 -0.256985 0.94743
upperback 2.14887 0.398893 5.57179
thorax -8.94143 0.264933 5.46888
lowerneck -15.2678 -0.43085 0.783274
upperneck 20.6184 0.725477 -6.66921
head 9.01999 -0.327431 -2.32384
rclavicle -1.51076e-014 3.97569e-014
rhumerus -9.48022 12.908 -41.1145
rradius 126.801
rwrist 1.51356
rhand -21.1555 -27.0344
rfingers 7.12502
rthumb 5.22419 -56.95
lclavicle -1.51076e-014 3.97569e-014
lhumerus 16.8365 -30.3791 62.0256
lradius 109.292
lwrist 29.6239
lhand -16.5814 -31.6667
lfingers 7.12502
lthumb 9.6392 -1.90727
rfemur -6.72623 -1.48061 11.8751
rtibia 19.3373
rfoot -17.1446 -3.8015
rtoes -19.012
lfemur -14.3165 3.33147 -14.2261
ltibia 36.0042
lfoot -23.4988 6.33889
ltoes -56.1883
164
root -0.100666 18.3472 5.02819 1.57632 -3.47959 -0.941652
lowerback 20.0792 -0.328332 1.13418
upperback 2.14713 0.358035 5.6749
thorax -8.95883 0.241038 5.48841
lowerneck -15.3151 -0.339337 0.841587
upperneck 20.5488 0.883083 -6.87767
head 9.01328 -0.271138 -2.38548
rclavicle 1.31198e-014 -3.02153e-014
rhumerus -9.57734 12.9974 -41.2212
rradius 127.872
rwrist 1.5176
rhand -20.9327 -27.0673
rfingers 7.12502
rthumb 5.43935 -56.9774
lclavicle 1.31198e-014 -3.02153e-014
lhumerus 16.5998 -30.6235 62.0793
lradius 109.839
lwrist 30.0387
lhand -16.6218 -31.5969
lfingers 7.12502
lthumb 9.60028 -1.83563
rfemur -6.76998 -1.7099 11.9101
rtibia 19.5472
rfoot -17.2435 -3.78135
rtoes -19.4281
lfemur -14.4535 3.36378 -14.1658
ltibia 36.1961
lfoot -23.4872 6.07945
ltoes -56.1211
165
root -0.0920063 18.3425 5.03887 1.63532 -3.11988 -0.987428
lowerback 20.0473 -0.405954 1.28146
upperback 2.15367 0.29949 5.80235
thorax -8.92963 0.210142 5.56057
lowerneck -15.3975 -0.295132 0.906589
upperneck 20.4541 1.00205 -7.21714
head 9.00424 -0.246573 -2.49784
rclavicle -2.0276e-014 -1.27222e-014
rhumerus -9.54535 13.3638 -41.3045
rradius 129.016
rwrist 1.35446
rhand -20.4433 -27.3233
rfingers 7.12502
rthumb 5.91185 -57.2208
lclavicle -2.0276e-014 -1.27222e-014
lhumerus 16.4779 -30.7942 62.2246
lradius 110.295
lwrist 30.0568
lhand -16.5344 -31.5592
lfingers 7.12502
lthumb 9.68462 -1.8018
rfemur -6.79048 -2.06661 11.9308
rtibia 19.7057
rfoot -17.3978 -3.78802
rtoes -19.5315
lfemur -14.6318 3.12507 -14.1262
ltibia 36.3375
lfoot -23.4365 5.86004
ltoes -55.9692
